<svg width="20" height="20" viewBox="0 0 20 20" fill="none" xmlns="http://www.w3.org/2000/svg">
<path d="M18.7633 9.49149C19.157 10.0118 19.375 10.6493 19.375 11.3126C19.375 12.3649 18.7867 13.361 17.8398 13.9165C17.5961 14.0595 17.3185 14.1347 17.0359 14.1345H11.4156L11.5563 17.0149C11.5891 17.711 11.343 18.372 10.8648 18.8759C10.6302 19.1242 10.3471 19.3218 10.0331 19.4565C9.71905 19.5911 9.38074 19.6599 9.03906 19.6587C7.82031 19.6587 6.74219 18.8384 6.41875 17.6641L4.40547 10.3751H1.375C0.960156 10.3751 0.625 10.0399 0.625 9.62508V1.09383C0.625 0.678986 0.960156 0.34383 1.375 0.34383H15.468C15.6836 0.34383 15.8945 0.386017 16.0891 0.470392C17.2047 0.946175 17.9242 2.03602 17.9242 3.24539C17.9242 3.5407 17.882 3.83133 17.7977 4.11258C18.1914 4.63289 18.4094 5.27039 18.4094 5.93367C18.4094 6.22899 18.3672 6.51961 18.2828 6.80086C18.6766 7.32117 18.8945 7.95867 18.8945 8.62195C18.8898 8.91727 18.8477 9.21024 18.7633 9.49149ZM2.3125 2.03133V8.68758H4.21094V2.03133H2.3125ZM17.2281 10.3048L16.7148 9.85945L17.0406 9.26414C17.148 9.06804 17.2036 8.84785 17.2023 8.6243C17.2023 8.23758 17.0336 7.86961 16.743 7.61649L16.2297 7.17117L16.5555 6.57586C16.6628 6.37976 16.7185 6.15957 16.7172 5.93602C16.7172 5.5493 16.5484 5.18133 16.2578 4.9282L15.7445 4.48289L16.0703 3.88758C16.1776 3.69148 16.2333 3.47128 16.232 3.24774C16.232 2.72274 15.9227 2.2493 15.4445 2.03367H5.71094V8.76258L8.04297 17.2118C8.1031 17.4284 8.23219 17.6194 8.41066 17.756C8.58914 17.8926 8.80728 17.9673 9.03203 17.9688C9.21016 17.9688 9.38594 17.9173 9.52656 17.8118C9.75859 17.6384 9.88281 17.3759 9.86875 17.097L9.64375 12.447H17.0125C17.4297 12.1915 17.6875 11.7602 17.6875 11.3126C17.6875 10.9259 17.5188 10.5602 17.2281 10.3048Z" fill="#FF6A6A"/>
</svg>
