<svg width="24" height="24" viewBox="0 0 24 24" fill="none" xmlns="http://www.w3.org/2000/svg">
<path fill-rule="evenodd" clip-rule="evenodd" d="M8.03096 7.6785L11.307 1.188C11.3699 1.05743 11.4682 0.94715 11.5907 0.869714C11.7132 0.792279 11.855 0.7508 12 0.75C12.2745 0.75 12.549 0.8955 12.6975 1.188L15.9735 7.6785L23.3205 8.7225C23.5036 8.75129 23.6712 8.84237 23.795 8.98036C23.9188 9.11836 23.9912 9.29483 24 9.48C24.0102 9.60326 23.9926 9.72725 23.9485 9.84279C23.9043 9.95833 23.8348 10.0625 23.745 10.1475L18.4605 15.1815L19.7055 22.2765C19.8225 22.941 19.1655 23.4615 18.5865 23.1645L12 19.7805L5.41646 23.1645C5.3476 23.2003 5.27379 23.2256 5.19746 23.2395C4.68596 23.3295 4.19546 22.8585 4.29746 22.2765L5.54246 15.1815L0.259456 10.1475C0.177596 10.0697 0.112592 9.97585 0.0684702 9.87187C0.0243487 9.76789 0.00205013 9.65595 0.00295623 9.543C0.00334126 9.3834 0.0468779 9.22688 0.128956 9.09C0.188054 8.99111 0.268605 8.90674 0.364663 8.84313C0.460722 8.77953 0.569837 8.7383 0.683956 8.7225L8.03096 7.6785ZM12 18.0405C12.12 18.0405 12.24 18.0675 12.348 18.1245L17.877 20.9655L16.836 15.03C16.8114 14.8934 16.8209 14.7528 16.8636 14.6207C16.9062 14.4886 16.9807 14.369 17.0805 14.2725L21.4395 10.1175L15.3615 9.2535C15.2356 9.2345 15.1162 9.18527 15.0136 9.11003C14.9109 9.03479 14.828 8.93579 14.772 8.8215L12.003 3.3345L12 3.339V18.039V18.0405Z" fill="#FF7A00"/>
</svg>
