<svg width="22" height="19" viewBox="0 0 22 19" fill="none" xmlns="http://www.w3.org/2000/svg">
<path fill-rule="evenodd" clip-rule="evenodd" d="M11.0126 2.83165L9.87274 1.70172C9.33851 1.16498 8.70245 0.738308 8.00119 0.44626C7.29993 0.154211 6.54732 0.00255814 5.78669 3.2086e-05C5.02606 -0.00249397 4.27244 0.144157 3.56922 0.431541C2.866 0.718926 2.22707 1.14137 1.68922 1.67454C1.15137 2.20771 0.725229 2.84109 0.435325 3.5382C0.145421 4.2353 -0.00251584 4.98237 3.23673e-05 5.73639C0.00258057 6.49041 0.155563 7.23648 0.450173 7.93165C0.744782 8.62681 1.1752 9.25734 1.71664 9.78693L10.9853 18.975L10.9874 18.973L11.0147 19L20.2834 9.81188C20.8248 9.28229 21.2552 8.65176 21.5498 7.95659C21.8444 7.26143 21.9974 6.51536 22 5.76134C22.0025 5.00732 21.8546 4.26025 21.5647 3.56314C21.2748 2.86604 20.8486 2.23266 20.3108 1.69949C19.7729 1.16631 19.134 0.743874 18.4308 0.456489C17.7276 0.169105 16.9739 0.0224539 16.2133 0.02498C15.4527 0.027506 14.7001 0.179159 13.9988 0.471208C13.2976 0.763256 12.6615 1.18993 12.1273 1.72667L11.0126 2.83165ZM10.9874 16.0333L16.1634 10.9013L17.6839 9.44598H17.6859L18.8006 8.34203C19.4889 7.65969 19.8756 6.73424 19.8756 5.76927C19.8756 4.8043 19.4889 3.87885 18.8006 3.19652C18.1123 2.51418 17.1787 2.13084 16.2053 2.13084C15.2319 2.13084 14.2983 2.51418 13.61 3.19652L11.0136 5.77135L11.0063 5.76407H11.0052L8.39001 3.17261C7.70168 2.49027 6.76812 2.10694 5.79469 2.10694C4.82126 2.10694 3.8877 2.49027 3.19938 3.17261C2.51105 3.85494 2.12436 4.78039 2.12436 5.74536C2.12436 6.71033 2.51105 7.63578 3.19938 8.31812L5.86285 10.9584L5.8639 10.9553L10.9874 16.0343V16.0333Z" fill="#448E07"/>
</svg>
