<svg width="20" height="21" viewBox="0 0 20 21" fill="none" xmlns="http://www.w3.org/2000/svg">
<path d="M9.92064 8H11.9048V5H14.881V3H11.9048V0H9.92064V3H6.94444V5H9.92064V8ZM5.95238 17C4.86111 17 3.97817 17.9 3.97817 19C3.97817 20.1 4.86111 21 5.95238 21C7.04365 21 7.93651 20.1 7.93651 19C7.93651 17.9 7.04365 17 5.95238 17ZM15.873 17C14.7817 17 13.8988 17.9 13.8988 19C13.8988 20.1 14.7817 21 15.873 21C16.9643 21 17.8571 20.1 17.8571 19C17.8571 17.9 16.9643 17 15.873 17ZM6.12103 13.75L6.15079 13.63L7.04365 12H14.4345C15.1786 12 15.8333 11.59 16.1706 10.97L20 3.96L18.2738 3H18.2639L17.1726 5L14.4345 10H7.47024L7.34127 9.73L5.11905 5L4.17659 3L3.24405 1H0V3H1.98413L5.55556 10.59L4.21627 13.04C4.05754 13.32 3.96825 13.65 3.96825 14C3.96825 15.1 4.86111 16 5.95238 16H17.8571V14H6.36905C6.24008 14 6.12103 13.89 6.12103 13.75Z" fill="#fff"/>
</svg>
