<svg width="24" height="24" viewBox="0 0 24 24" fill="none" xmlns="http://www.w3.org/2000/svg">
<path d="M7.78125 4.21875H8.48438L9.28125 4.73438L9.89062 4.21875H14.1094L14.7656 4.73438L15.5156 4.21875H16.2188C18.1573 4.21875 19.7344 2.64164 19.7344 0.703125C19.7344 0.314812 19.4196 0 19.0312 0C18.6429 0 18.3281 0.314812 18.3281 0.703125C18.3281 1.86623 17.3819 2.8125 16.2188 2.8125H7.78125C6.61814 2.8125 5.67188 1.86623 5.67188 0.703125C5.67188 0.314812 5.35706 0 4.96875 0C4.58044 0 4.26562 0.314812 4.26562 0.703125C4.26562 2.64164 5.84273 4.21875 7.78125 4.21875ZM16.2188 7.125H15.5156L14.7656 6.42188L14.1094 7.125H9.89062L9.28125 6.42188L8.48438 7.125H7.78125C7.59473 7.125 7.41591 7.19906 7.28409 7.33092C5.34769 9.26733 4.26562 11.8857 4.26562 14.6181V21.8906C4.26562 22.2789 4.58044 22.5938 4.96875 22.5938H7.07812L8.01562 23.2969L8.48438 22.5938H15.5156L16.4531 23.2969L16.9219 22.5938H19.0312C19.4196 22.5938 19.7344 22.2789 19.7344 21.8906V14.6181C19.7344 11.8796 18.6479 9.26297 16.7159 7.33097C16.5841 7.19906 16.4053 7.125 16.2188 7.125Z" fill="url(#paint0_linear)"/>
<path d="M9.89062 4.21875H8.48438V7.125H9.89062V4.21875ZM15.5156 4.21875H14.1094V7.125H15.5156V4.21875ZM12 9.9375C9.28608 9.9375 7.07812 12.1455 7.07812 14.8594C7.07812 17.5733 9.28608 19.7812 12 19.7812C14.7139 19.7812 16.9219 17.5733 16.9219 14.8594C16.9219 12.1455 14.7139 9.9375 12 9.9375ZM13.4062 15.5625H12C11.6117 15.5625 11.2969 15.2477 11.2969 14.8594V13.4531C11.2969 13.0648 11.6117 12.75 12 12.75C12.3883 12.75 12.7031 13.0648 12.7031 13.4531V14.1562H13.4062C13.7946 14.1562 14.1094 14.4711 14.1094 14.8594C14.1094 15.2477 13.7946 15.5625 13.4062 15.5625ZM7.07812 23.2969C7.07812 23.6852 7.39294 24 7.78125 24C8.16956 24 8.48438 23.6852 8.48438 23.2969V22.5938H7.07812V23.2969ZM15.5156 23.2969C15.5156 23.6852 15.8304 24 16.2188 24C16.6071 24 16.9219 23.6852 16.9219 23.2969V22.5938H15.5156V23.2969Z" fill="url(#paint1_linear)"/>
<defs>
<linearGradient id="paint0_linear" x1="12" y1="23.2969" x2="12" y2="0" gradientUnits="userSpaceOnUse">
<stop stop-color="#FD3A84"/>
<stop offset="1" stop-color="#FFA68D"/>
</linearGradient>
<linearGradient id="paint1_linear" x1="12" y1="24" x2="12" y2="4.21875" gradientUnits="userSpaceOnUse">
<stop stop-color="#FFC2CC"/>
<stop offset="1" stop-color="#FFF2F4"/>
</linearGradient>
</defs>
</svg>
