<svg width="14" height="14" viewBox="0 0 14 14" fill="none" xmlns="http://www.w3.org/2000/svg">
<path d="M1.60936 0.26261C1.43292 0.0921986 1.1966 -0.00209613 0.951314 3.5365e-05C0.706025 0.00216686 0.471386 0.100554 0.297933 0.274007C0.124481 0.447459 0.0260937 0.682098 0.0239622 0.927387C0.0218307 1.17268 0.116125 1.40899 0.286537 1.58543L5.68914 6.98804L0.285602 12.3906C0.19625 12.4769 0.124981 12.5802 0.0759512 12.6943C0.0269217 12.8084 0.00111474 12.9312 3.53223e-05 13.0554C-0.00104409 13.1796 0.0226259 13.3028 0.0696644 13.4178C0.116703 13.5328 0.186168 13.6372 0.274006 13.7251C0.361844 13.8129 0.466297 13.8824 0.581268 13.9294C0.69624 13.9764 0.819428 14.0001 0.943645 13.999C1.06786 13.998 1.19062 13.9721 1.30476 13.9231C1.41889 13.8741 1.52212 13.8028 1.60842 13.7135L7.01196 8.31086L12.4146 13.7135C12.591 13.8839 12.8273 13.9782 13.0726 13.976C13.3179 13.9739 13.5525 13.8755 13.726 13.7021C13.8994 13.5286 13.9978 13.294 14 13.0487C14.0021 12.8034 13.9078 12.5671 13.7374 12.3906L8.33478 6.98804L13.7374 1.58543C13.9078 1.40899 14.0021 1.17268 14 0.927387C13.9978 0.682098 13.8994 0.447459 13.726 0.274007C13.5525 0.100554 13.3179 0.00216686 13.0726 3.5365e-05C12.8273 -0.00209613 12.591 0.0921986 12.4146 0.26261L7.01196 5.66522L1.60936 0.261675V0.26261Z" fill="#2B2B2B"/>
</svg>
